<?xml version="1.0" encoding="utf-8"?>
<!-- Generator: Adobe Illustrator 23.0.3, SVG Export Plug-In . SVG Version: 6.00 Build 0)  -->
<svg version="1.1" id="Logo" xmlns="http://www.w3.org/2000/svg" xmlns:xlink="http://www.w3.org/1999/xlink" x="0px" y="0px"
	 viewBox="0 0 137 28" style="enable-background:new 0 0 137 28;" xml:space="preserve">
<style type="text/css">
	.st0{enable-background:new    ;}
	.st1{fill:#FEFEFE;}
	.st2{fill:#65E496;}
	.st3{fill-rule:evenodd;clip-rule:evenodd;fill:#65E496;}
	.st4{fill-rule:evenodd;clip-rule:evenodd;fill:#44444F;}
</style>
<g class="st0">
	<path class="st1" d="M47,23V3.1h7c1.2,0,2.2,0.1,3.1,0.3c0.9,0.2,1.7,0.6,2.3,1c0.6,0.5,1.1,1,1.4,1.7c0.3,0.7,0.5,1.5,0.5,2.4
		c0,0.5-0.1,0.9-0.2,1.3c-0.1,0.4-0.3,0.8-0.5,1.2s-0.5,0.7-0.9,1s-0.8,0.5-1.3,0.7c0.6,0.1,1.1,0.4,1.5,0.7c0.4,0.3,0.8,0.6,1,1
		c0.3,0.4,0.5,0.8,0.6,1.3s0.2,0.9,0.2,1.4c0,1.9-0.6,3.4-1.9,4.4s-3,1.5-5.3,1.5H47z M51.1,11.4h3c1,0,1.8-0.2,2.3-0.7
		c0.5-0.4,0.8-1,0.8-1.8c0-0.9-0.3-1.6-0.8-1.9c-0.5-0.4-1.4-0.6-2.5-0.6h-2.9V11.4z M51.1,14.3v5.4h3.5c0.5,0,1-0.1,1.4-0.2
		s0.7-0.3,1-0.5c0.3-0.2,0.4-0.5,0.6-0.8s0.2-0.7,0.2-1c0-0.4-0.1-0.8-0.2-1.2s-0.3-0.6-0.5-0.9s-0.5-0.4-0.9-0.6
		c-0.4-0.1-0.8-0.2-1.3-0.2H51.1z"/>
	<path class="st1" d="M79.9,3.1v13.1c0,1.1-0.2,2.2-0.6,3s-0.9,1.6-1.6,2.2s-1.5,1-2.4,1.3c-0.9,0.3-2,0.5-3.1,0.5
		c-1.1,0-2.1-0.2-3.1-0.5c-0.9-0.3-1.7-0.7-2.4-1.3c-0.7-0.6-1.2-1.3-1.6-2.2c-0.4-0.9-0.6-1.9-0.6-3V3.1h4.1v13.1
		c0,1.3,0.3,2.3,0.9,2.9c0.6,0.6,1.5,0.9,2.6,0.9c1.1,0,2-0.3,2.6-0.9s0.9-1.5,0.9-2.9V3.1H79.9z"/>
	<path class="st1" d="M89.5,15l-2.1,2.3V23h-4.1V3.1h4.1v9l1.8-2.5l5.1-6.5h5l-7.1,8.8L99.5,23h-4.9L89.5,15z"/>
</g>
<g class="st0">
	<path class="st2" d="M113,14.4h-7.9v5.3h9.2V23h-13.3V3.1h13.3v3.3h-9.2v4.7h7.9V14.4z"/>
	<path class="st2" d="M128.8,14.4h-7.9v5.3h9.2V23h-13.3V3.1h13.3v3.3h-9.2v4.7h7.9V14.4z"/>
</g>
<g id="logo_icon">
	<path id="Rectangle_10_copy_3" class="st3" d="M28,28L0,0h28V28z"/>
	<path class="st4" d="M28,0L0,28V0H28z"/>
</g>
</svg>
